<svg 
viewBox="0 0 1024 1064.882" 
xmlns="http://www.w3.org/2000/svg"
fill="#1E7E77">
<path d="M358.493 526.398h.323c40.897 0 79.795 8.563 114.997 23.993l-1.843-.72 16.058 6.89-2.14 17.36c-18.23 143.94-139.91 254.13-287.325 254.14h-.29c-40.527 0-79.098-8.372-114.08-23.48l1.87.718-16.2-6.842L72.006 781c5.168-41.124 18.023-78.343 37.115-111.517l-.763 1.438c50.958-86.874 143.815-144.33 250.108-144.523h.028zm78.336 59.624c-23.286-8.29-50.145-13.08-78.123-13.08h-.225.01c-89.117.127-166.97 48.24-209.114 119.88l-.62 1.14c-12.53 21.565-22.204 46.607-27.65 73.19l-.276 1.607c23.117 8.04 49.763 12.686 77.493 12.686 44.806 0 86.78-12.126 122.82-33.275l-1.145.62c59.468-34.968 102.284-92.834 116.552-161.18l.277-1.59zm400.15-336.058H837.985c40.568 0 79.18 8.37 114.206 23.48l-1.872-.72 16.198 6.843-2.14 17.455c-5.17 41.125-18.024 78.344-37.116 111.518l.763-1.438c-51.01 86.783-143.858 144.15-250.115 144.29h-.343c-40.897 0-79.795-8.562-114.997-23.992l1.843.72-16.01-6.842 2.094-17.315c17.858-143.797 139.303-253.99 286.487-254h.002zm78.336 59.253c-23.085-8.055-49.696-12.707-77.393-12.707H836.98c-117.15.068-214.825 83.354-237.12 193.94l-.262 1.55c23.324 8.32 50.23 13.127 78.257 13.127h.18-.008c89.118-.126 166.97-48.24 209.115-119.88l.62-1.138c12.413-21.603 21.968-46.688 27.288-73.3l.265-1.593zM518.19 573.687l13.965 10.427c70.602 53.317 115.758 137.09 115.758 231.412 0 53.29-14.414 103.214-39.557 146.085l.74-1.36c-20.043 34.208-45.77 62.86-76.19 85.573l-.75.535-13.964 10.287-13.964-10.287c-31.208-23.24-56.966-51.894-76.307-84.775l-.725-1.334c-24.375-41.49-38.77-91.385-38.77-144.642 0-94.34 45.174-178.13 115.072-230.918l.73-.53zm0 424.263c19.95-17.243 36.79-37.39 50.035-59.905l.607-1.116c20.466-34.818 32.555-76.693 32.555-121.39 0-72.834-32.096-138.17-82.915-182.638l-.282-.24c-51.082 44.707-83.165 110.032-83.165 182.85 0 44.71 12.094 86.593 33.19 122.56l-.62-1.143c13.838 23.63 30.664 43.776 50.296 60.766l.3.254zM837.82 828.06c-147.39-.005-269.052-110.146-287.176-252.612l-.15-1.434-2.14-17.36 16.058-6.89c33.494-14.725 72.54-23.295 113.588-23.295 106.262 0 199.11 57.432 249.194 142.95l.737 1.362c18.375 31.788 31.263 69.07 36.293 108.8l.15 1.466 2.142 17.455-16.198 6.842c-33.084 14.36-71.616 22.714-112.1 22.714h-.423.022zM599.552 586.02c22.952 112.24 120.887 195.482 238.265 195.49h.198c27.666 0 54.245-4.65 78.997-13.217l-1.696.51c-5.71-28.257-15.388-53.363-28.57-76.19l.643 1.206c-42.705-72.712-120.44-120.806-209.425-121.017h-.03c-28.082.017-55.028 4.858-80.06 13.738l1.677-.518zM199.494 249.964c146.827.175 267.99 109.835 286.243 251.718l.152 1.443 2.14 17.315-16.058 6.89c-33.533 14.884-72.65 23.55-113.793 23.55h-.16.01c-105.87-.25-198.37-57.262-248.702-142.204l-.736-1.34v-.234c-18.412-31.74-31.345-68.968-36.43-108.65l-.154-1.476-2.14-17.455 16.197-6.84c33.152-14.39 71.765-22.762 112.333-22.762h.323-.015zM436.876 491.07C413.8 379.405 316.332 296.638 199.508 296.51h-1.05c-27.697 0-54.308 4.652-79.093 13.218l1.7-.51c5.728 28.207 15.403 53.264 28.57 76.05l-.643-1.206c42.9 72.39 120.586 120.186 209.442 120.273h.012c28.088-.033 55.03-4.89 80.06-13.785l-1.678.52zM518.19 21.333l13.965 10.287c31.208 23.24 56.966 51.894 76.307 84.775l.726 1.334c24.386 41.496 38.79 91.402 38.79 144.672 0 94.35-45.183 178.146-115.092 230.932l-.73.53-13.965 10.425-13.963-10.427c-70.59-53.317-115.74-137.085-115.74-231.398 0-53.277 14.408-103.19 39.54-146.052l-.74 1.363c20.043-34.21 45.77-62.86 76.19-85.574l.75-.535zm0 424.03c51.094-44.71 83.184-110.04 83.184-182.868 0-44.722-12.1-86.617-33.208-122.59l.62 1.142c-13.84-23.612-30.666-43.743-50.294-60.72l-.302-.254c-19.95 17.243-36.79 37.39-50.034 59.905l-.607 1.116c-20.467 34.817-32.556 76.692-32.556 121.39 0 72.833 32.096 138.17 82.915 182.637l.28.242z"/></svg>