<svg width="439" height="536" viewBox="0 0 439 536" fill="none" xmlns="http://www.w3.org/2000/svg">
<mask id="mask0_7_111" style="mask-type:alpha" maskUnits="userSpaceOnUse" x="0" y="0" width="439" height="536">
<path d="M0 219.5C0 98.2735 98.2735 0 219.5 0C340.727 0 439 98.2735 439 219.5V536H0V219.5Z" fill="#B1BFE3"/>
</mask>
<g mask="url(#mask0_7_111)">
<g filter="url(#filter0_i_7_111)">
<path d="M-13.5 513C20.6667 493.167 94.5 445 78.5 418C67.5 408 52 421 54.5 436.5C71.5752 542.366 395.5 494 310.5 368.5" stroke="white" stroke-width="3" stroke-linecap="round"/>
<path d="M134.683 366.178C85.8494 313.345 26.1827 221.978 178.183 279.178C368.183 350.678 369.183 314.178 347.683 296.178" stroke="white" stroke-width="3" stroke-linecap="round"/>
<path d="M343.134 206C271.134 144.667 158.034 28 267.634 44C377.234 60 375.301 38 360.634 25" stroke="white" stroke-width="3" stroke-linecap="round"/>
</g>
</g>
<defs>
<filter id="filter0_i_7_111" x="-15.0002" y="23.5" width="384.291" height="494" filterUnits="userSpaceOnUse" color-interpolation-filters="sRGB">
<feFlood flood-opacity="0" result="BackgroundImageFix"/>
<feBlend mode="normal" in="SourceGraphic" in2="BackgroundImageFix" result="shape"/>
<feColorMatrix in="SourceAlpha" type="matrix" values="0 0 0 0 0 0 0 0 0 0 0 0 0 0 0 0 0 0 127 0" result="hardAlpha"/>
<feOffset dy="4"/>
<feGaussianBlur stdDeviation="1.5"/>
<feComposite in2="hardAlpha" operator="arithmetic" k2="-1" k3="1"/>
<feColorMatrix type="matrix" values="0 0 0 0 0.0916667 0 0 0 0 0.0855556 0 0 0 0 0.0855556 0 0 0 0.2 0"/>
<feBlend mode="normal" in2="shape" result="effect1_innerShadow_7_111"/>
</filter>
</defs>
</svg>
